<svg xmlns="http://www.w3.org/2000/svg" xmlns:xlink="http://www.w3.org/1999/xlink" preserveAspectRatio="xMidYMid" width="17" height="17" viewBox="0 0 17 17">
  <defs>
    <style>
      .cls-1 {
        fill: #fff;
        fill-rule: evenodd;
      }
    </style>
  </defs>
  <path d="M8.500,16.733 C3.878,16.733 0.116,12.973 0.116,8.349 C0.116,3.727 3.878,-0.034 8.500,-0.034 C13.124,-0.034 16.884,3.727 16.884,8.349 C16.884,12.973 13.124,16.733 8.500,16.733 M15.572,9.497 C15.325,9.420 13.355,8.832 11.112,9.191 C12.048,11.764 12.429,13.862 12.501,14.297 C14.108,13.210 15.253,11.490 15.572,9.497 M11.298,14.951 C11.191,14.323 10.775,12.134 9.769,9.521 C9.753,9.527 9.737,9.531 9.722,9.537 C5.684,10.945 4.234,13.746 4.106,14.009 C5.318,14.955 6.846,15.519 8.500,15.519 C9.492,15.521 10.438,15.318 11.298,14.951 M3.181,13.149 C3.343,12.871 5.308,9.617 9.002,8.423 C9.095,8.392 9.189,8.364 9.284,8.337 C9.103,7.931 8.909,7.523 8.704,7.122 C5.127,8.192 1.657,8.148 1.344,8.142 C1.342,8.215 1.340,8.287 1.340,8.361 C1.340,10.200 2.037,11.878 3.181,13.149 M1.490,6.893 C1.811,6.898 4.762,6.911 8.111,6.021 C6.926,3.912 5.645,2.138 5.456,1.879 C3.452,2.824 1.955,4.671 1.490,6.893 M6.822,1.399 C7.019,1.664 8.321,3.435 9.494,5.590 C12.040,4.637 13.118,3.187 13.246,3.003 C11.983,1.881 10.319,1.198 8.500,1.198 C7.922,1.198 7.361,1.271 6.822,1.399 M14.042,3.831 C13.892,4.037 12.692,5.575 10.045,6.656 C10.210,6.996 10.372,7.343 10.522,7.693 C10.574,7.816 10.625,7.940 10.674,8.062 C13.057,7.762 15.424,8.243 15.659,8.292 C15.646,6.604 15.043,5.050 14.042,3.831 " class="cls-1"/>
</svg>
