<svg xmlns="http://www.w3.org/2000/svg" xmlns:xlink="http://www.w3.org/1999/xlink" preserveAspectRatio="xMidYMid" width="33" height="32" viewBox="0 0 33 32">
  <defs>
    <style>
      .cls-1 {
        fill: #f8e536;
        fill-rule: evenodd;
      }
    </style>
  </defs>
  <path d="M23.826,19.334 C21.716,21.446 21.716,23.556 19.607,23.556 C17.496,23.556 15.385,21.446 13.274,19.334 C11.165,17.225 9.054,15.114 9.054,13.004 C9.054,10.893 11.165,10.893 13.274,8.783 C15.385,6.673 9.054,0.341 6.944,0.341 C4.833,0.341 0.613,6.673 0.613,6.673 C0.613,10.893 4.948,19.449 9.054,23.556 C13.159,27.661 21.716,31.998 25.937,31.998 C25.937,31.998 32.268,27.776 32.268,25.666 C32.268,23.556 25.937,17.225 23.826,19.334 " class="cls-1"/>
</svg>
