<svg xmlns="http://www.w3.org/2000/svg" xmlns:xlink="http://www.w3.org/1999/xlink" preserveAspectRatio="xMidYMid" width="23" height="23" viewBox="0 0 23 23">
  <defs>
    <style>
      .cls-1 {
        fill: #ee558e;
        filter: url(#color-overlay-1);
        fill-rule: evenodd;
      }
    </style>

    <filter id="color-overlay-1" filterUnits="userSpaceOnUse">
      <feFlood flood-color="#444"/>
      <feComposite operator="in" in2="SourceGraphic"/>
      <feBlend in2="SourceGraphic" result="solidFill"/>
    </filter>
  </defs>
  <path d="M22.067,13.664 C21.927,14.354 21.714,15.033 21.438,15.684 C21.169,16.319 20.834,16.936 20.445,17.510 C20.057,18.081 19.616,18.613 19.127,19.101 C18.641,19.587 18.104,20.028 17.532,20.409 C16.955,20.800 16.338,21.133 15.698,21.403 C15.047,21.678 14.365,21.888 13.669,22.030 C12.962,22.174 12.229,22.247 11.499,22.247 C10.767,22.247 10.037,22.174 9.327,22.030 C8.634,21.888 7.952,21.678 7.299,21.403 C6.661,21.133 6.042,20.800 5.465,20.409 C4.897,20.028 4.359,19.587 3.870,19.101 C3.383,18.613 2.939,18.081 2.555,17.510 C2.165,16.936 1.831,16.319 1.559,15.684 C1.283,15.033 1.073,14.354 0.930,13.664 C0.785,12.958 0.711,12.228 0.711,11.498 C0.711,10.772 0.785,10.042 0.930,9.336 C1.073,8.646 1.283,7.964 1.559,7.317 C1.831,6.678 2.165,6.064 2.555,5.489 C2.939,4.921 3.383,4.384 3.870,3.898 C4.359,3.414 4.897,2.973 5.465,2.586 C6.042,2.199 6.661,1.866 7.299,1.594 C7.952,1.323 8.634,1.109 9.327,0.971 C10.037,0.823 10.767,0.750 11.499,0.750 C12.229,0.750 12.962,0.823 13.669,0.971 C14.365,1.109 15.047,1.323 15.698,1.594 C16.338,1.866 16.955,2.199 17.532,2.586 C18.104,2.973 18.641,3.414 19.127,3.898 C19.616,4.384 20.057,4.921 20.445,5.489 C20.834,6.064 21.169,6.678 21.438,7.317 C21.714,7.964 21.927,8.646 22.067,9.336 C22.214,10.042 22.288,10.772 22.288,11.498 C22.288,12.228 22.214,12.958 22.067,13.664 ZM16.647,19.112 C18.717,17.722 20.187,15.514 20.595,12.958 C20.405,12.895 17.829,12.080 14.855,12.556 C16.062,15.866 16.555,18.558 16.647,19.112 ZM11.499,20.678 C12.774,20.678 13.993,20.420 15.095,19.952 C14.960,19.149 14.424,16.339 13.127,12.981 C13.106,12.989 13.088,12.995 13.067,13.002 C7.709,14.860 5.910,18.579 5.843,18.723 C7.406,19.938 9.362,20.678 11.499,20.678 ZM2.285,11.498 C2.285,13.856 3.178,16.004 4.643,17.630 C4.646,17.623 7.168,13.170 12.137,11.570 C12.258,11.533 12.377,11.497 12.501,11.461 C12.270,10.940 12.016,10.415 11.752,9.901 C7.008,11.315 2.457,11.214 2.294,11.209 C2.291,11.306 2.285,11.402 2.285,11.498 ZM7.567,3.197 C4.999,4.405 3.082,6.764 2.483,9.606 C2.726,9.612 6.567,9.656 10.989,8.487 C9.395,5.663 7.692,3.361 7.567,3.197 ZM11.499,2.319 C10.752,2.319 10.025,2.411 9.329,2.579 C9.466,2.760 11.197,5.051 12.772,7.935 C16.248,6.636 17.560,4.647 17.584,4.610 C15.962,3.184 13.831,2.319 11.499,2.319 ZM18.615,5.668 C18.598,5.693 17.121,7.823 13.481,9.302 C13.697,9.738 13.901,10.184 14.094,10.633 C14.163,10.794 14.229,10.950 14.293,11.108 C17.458,10.711 20.577,11.377 20.710,11.407 C20.687,9.229 19.908,7.232 18.615,5.668 Z" class="cls-1"/>
</svg>
