<svg xmlns="http://www.w3.org/2000/svg" xmlns:xlink="http://www.w3.org/1999/xlink" preserveAspectRatio="xMidYMid" width="23" height="23" viewBox="0 0 23 23">
  <defs>
    <style>
      .cls-1 {
        fill: #ee558e;
        filter: url(#color-overlay-1);
        fill-rule: evenodd;
      }
    </style>

    <filter id="color-overlay-1" filterUnits="userSpaceOnUse">
      <feFlood flood-color="#444"/>
      <feComposite operator="in" in2="SourceGraphic"/>
      <feBlend in2="SourceGraphic" result="solidFill"/>
    </filter>
  </defs>
  <path d="M19.346,5.426 L19.346,8.350 L17.879,8.350 L17.879,5.426 L14.947,5.426 L14.947,3.965 L17.879,3.965 L17.879,1.041 L19.346,1.041 L19.346,3.965 L22.281,3.965 L22.281,5.426 L19.346,5.426 ZM11.345,2.235 C12.524,2.907 13.149,4.293 13.149,5.818 C13.149,7.219 12.369,8.348 11.271,9.205 C10.196,10.041 9.994,10.392 9.994,11.099 C9.994,11.706 11.276,12.611 11.865,13.053 C13.919,14.585 14.334,15.551 14.334,17.472 C14.334,19.865 11.745,22.249 7.532,22.249 C3.837,22.249 0.719,20.749 0.719,18.355 C0.719,15.922 3.306,13.391 7.001,13.391 C7.404,13.391 7.773,13.381 8.154,13.381 C7.648,12.890 7.241,12.467 7.241,11.726 C7.241,11.289 7.380,10.869 7.578,10.491 C7.377,10.508 7.172,10.518 6.962,10.518 C3.927,10.518 2.159,8.395 2.159,5.729 C2.159,3.120 4.849,0.750 8.076,0.750 L14.436,0.750 L13.014,2.235 L11.345,2.235 ZM7.838,14.138 C5.283,14.110 3.120,15.748 3.120,17.643 C3.120,19.579 4.965,21.187 7.519,21.187 C11.111,21.187 12.362,19.676 12.362,17.743 C12.362,17.508 12.332,17.280 12.279,17.060 C11.997,15.963 10.881,15.365 9.493,14.404 C8.990,14.241 8.433,14.145 7.838,14.138 ZM10.594,5.914 C10.298,3.671 8.832,1.832 7.118,1.779 C5.404,1.729 4.253,3.445 4.552,5.689 C4.846,7.930 6.474,9.496 8.190,9.549 C9.903,9.600 10.889,8.156 10.594,5.914 Z" class="cls-1"/>
</svg>
