<svg xmlns="http://www.w3.org/2000/svg" xmlns:xlink="http://www.w3.org/1999/xlink" preserveAspectRatio="xMidYMid" width="23" height="19" viewBox="0 0 23 19">
  <defs>
    <style>
      .cls-1 {
        fill: #2ca9e1;
        filter: url(#color-overlay-1);
        fill-rule: evenodd;
      }
    </style>

    <filter id="color-overlay-1" filterUnits="userSpaceOnUse">
      <feFlood flood-color="#444"/>
      <feComposite operator="in" in2="SourceGraphic"/>
      <feBlend in2="SourceGraphic" result="solidFill"/>
    </filter>
  </defs>
  <path d="M0.711,16.252 C2.670,17.505 4.995,18.234 7.497,18.234 C15.640,18.234 20.092,11.513 20.092,5.685 C20.092,5.493 20.088,5.304 20.079,5.115 C20.945,4.494 21.695,3.716 22.289,2.832 C21.495,3.185 20.642,3.420 19.746,3.525 C20.661,2.982 21.361,2.116 21.692,1.087 C20.837,1.592 19.888,1.958 18.880,2.156 C18.074,1.300 16.922,0.765 15.650,0.765 C13.204,0.765 11.223,2.738 11.223,5.174 C11.223,5.519 11.262,5.855 11.338,6.179 C7.659,5.995 4.395,4.239 2.213,1.570 C1.833,2.224 1.614,2.979 1.614,3.788 C1.614,5.318 2.396,6.670 3.584,7.459 C2.856,7.439 2.175,7.237 1.576,6.907 L1.576,6.963 C1.576,9.099 3.105,10.883 5.128,11.288 C4.758,11.390 4.367,11.443 3.962,11.443 C3.676,11.443 3.400,11.416 3.130,11.364 C3.693,13.116 5.328,14.392 7.264,14.425 C5.750,15.609 3.842,16.313 1.767,16.313 C1.410,16.313 1.059,16.294 0.711,16.252 Z" class="cls-1"/>
</svg>
