<svg xmlns="http://www.w3.org/2000/svg" xmlns:xlink="http://www.w3.org/1999/xlink" preserveAspectRatio="xMidYMid" width="21" height="17" viewBox="0 0 21 17">
  <defs>
    <style>
      .cls-1 {
        fill: #fff;
        fill-rule: evenodd;
      }
    </style>
  </defs>
  <path d="M11.015,-0.030 L5.977,-0.030 C3.704,-0.030 1.564,1.854 1.564,3.787 C1.564,5.761 3.114,7.354 5.427,7.354 C5.588,7.354 5.745,7.351 5.897,7.340 C5.747,7.619 5.639,7.932 5.639,8.257 C5.639,8.807 5.944,9.251 6.330,9.613 C6.037,9.613 5.756,9.622 5.451,9.622 C2.636,9.622 -0.000,11.328 -0.000,13.128 C-0.000,14.901 2.844,16.042 5.659,16.042 C8.870,16.042 10.953,14.279 10.953,12.505 C10.953,11.084 10.208,10.232 8.868,9.314 C8.409,9.000 7.534,8.235 7.534,7.788 C7.534,7.261 7.689,7.002 8.507,6.382 C9.346,5.748 9.938,4.857 9.938,3.820 C9.938,2.583 9.371,1.380 8.304,0.983 L10.975,1.014 L11.015,-0.030 ZM9.275,12.263 C9.065,12.395 9.056,12.689 9.056,12.863 C9.056,14.295 7.998,15.008 5.680,15.008 C3.734,15.008 2.017,14.064 2.017,12.632 C2.017,11.227 4.040,10.058 5.987,10.078 C6.441,10.082 6.863,10.154 7.248,10.275 C8.304,10.985 9.063,11.389 9.275,12.200 M6.160,6.854 C4.853,6.817 3.613,5.439 3.386,3.778 C3.162,2.117 4.037,0.845 5.343,0.883 C6.649,0.921 7.891,2.255 8.117,3.915 C8.341,5.577 7.466,6.892 6.160,6.854 M15.993,3.925 L15.993,-0.030 L15.000,-0.030 L15.000,3.988 L10.991,4.019 L11.054,5.004 L15.031,4.973 L15.000,9.022 L15.993,8.991 L15.962,5.004 L20.000,4.973 L20.031,3.925 L15.993,3.925 Z" class="cls-1"/>
</svg>
