<svg xmlns="http://www.w3.org/2000/svg" xmlns:xlink="http://www.w3.org/1999/xlink" preserveAspectRatio="xMidYMid" width="20" height="16" viewBox="0 0 20 16">
  <defs>
    <style>
      .cls-1 {
        fill: #fff;
        fill-rule: evenodd;
      }
    </style>
  </defs>
  <path d="M19.535,2.215 C18.828,2.529 18.065,2.742 17.267,2.837 C18.082,2.347 18.707,1.574 19.003,0.653 C18.240,1.105 17.397,1.435 16.497,1.611 C15.776,0.844 14.751,0.365 13.616,0.365 C11.435,0.365 9.669,2.132 9.669,4.312 C9.669,4.622 9.704,4.923 9.770,5.211 C6.489,5.047 3.580,3.475 1.635,1.087 C1.294,1.670 1.100,2.347 1.100,3.072 C1.100,4.441 1.797,5.651 2.856,6.358 C2.210,6.337 1.602,6.160 1.069,5.865 C1.068,5.880 1.068,5.898 1.068,5.913 C1.068,7.827 2.428,9.421 4.234,9.785 C3.902,9.875 3.553,9.922 3.193,9.922 C2.939,9.922 2.692,9.898 2.451,9.852 C2.954,11.420 4.411,12.561 6.138,12.594 C4.787,13.652 3.085,14.283 1.236,14.283 C0.916,14.283 0.602,14.264 0.295,14.228 C2.042,15.347 4.116,16.001 6.344,16.001 C13.606,16.001 17.576,9.986 17.576,4.770 C17.576,4.598 17.573,4.428 17.565,4.258 C18.337,3.702 19.005,3.006 19.535,2.215 " class="cls-1"/>
</svg>
