<svg xmlns="http://www.w3.org/2000/svg" xmlns:xlink="http://www.w3.org/1999/xlink" preserveAspectRatio="xMidYMid" width="126" height="33" viewBox="0 0 126 33">
  <defs>
    <style>
      .cls-1 {
        fill: #3f4244;
      }

      .cls-1, .cls-2 {
        fill-rule: evenodd;
      }

      .cls-2 {
        fill: #00e1ff;
      }
    </style>
  </defs>
  <g>
    <path d="M119.646,9.548 L119.646,22.000 L116.038,22.000 L116.038,9.548 L111.264,9.548 L111.264,6.380 L124.398,6.380 L124.398,9.548 L119.646,9.548 ZM90.496,6.380 L101.276,6.380 L101.276,9.548 L94.104,9.548 L94.104,12.584 L100.264,12.584 L100.264,15.510 L94.104,15.510 L94.104,18.832 L101.474,18.832 L101.474,22.000 L90.496,22.000 L90.496,6.380 ZM75.154,22.000 L70.732,15.708 L69.104,17.402 L69.104,22.000 L65.496,22.000 L65.496,6.380 L69.104,6.380 L69.104,13.112 L74.824,6.380 L78.872,6.380 L73.020,13.354 L79.268,22.000 L75.154,22.000 Z" class="cls-1"/>
    <path d="M20.361,0.998 L1.000,31.999 L40.000,31.999 L20.361,0.998 Z" class="cls-2"/>
    <path d="M-0.000,-0.001 L20.000,32.999 L41.000,-0.001 L-0.000,-0.001 ZM39.000,0.999 L29.789,15.789 L20.757,1.027 L39.000,0.999 ZM19.983,1.027 L10.943,15.809 L2.000,0.999 L19.983,1.027 ZM29.378,16.463 L20.000,30.999 L11.347,16.471 L20.361,1.708 L29.378,16.463 Z" class="cls-1"/>
  </g>
</svg>
