<svg xmlns="http://www.w3.org/2000/svg" xmlns:xlink="http://www.w3.org/1999/xlink" preserveAspectRatio="xMidYMid" width="60" height="59" viewBox="0 0 60 59">
  <defs>
    <style>
      .cls-1 {
        fill: #00e1ff;
        fill-rule: evenodd;
      }
    </style>
  </defs>
  <path d="M56.798,35.477 C58.032,35.226 59.041,33.991 59.041,32.732 L59.041,26.267 C59.041,25.007 58.830,23.935 58.572,23.883 C58.314,23.830 57.094,23.582 55.860,23.331 L53.910,22.935 C52.676,22.683 51.478,21.970 51.246,21.348 C51.014,20.726 50.846,18.295 51.542,17.246 L53.176,14.777 C53.871,13.728 53.712,12.141 52.821,11.250 L48.249,6.678 C47.359,5.789 45.771,5.629 44.722,6.324 L42.213,7.985 C41.163,8.680 39.823,9.027 39.236,8.757 C38.648,8.487 36.830,6.893 36.579,5.659 L35.978,2.700 C35.727,1.467 34.492,0.458 33.233,0.458 L26.767,0.458 C25.508,0.458 24.273,1.467 24.022,2.700 L23.415,5.694 C23.164,6.928 22.463,8.121 21.859,8.345 C21.254,8.571 18.869,8.713 17.820,8.016 L15.277,6.326 C14.229,5.629 12.643,5.787 11.752,6.677 L7.178,11.251 C6.288,12.141 6.130,13.727 6.827,14.775 L8.518,17.319 C9.215,18.366 9.563,19.702 9.293,20.286 C9.022,20.870 7.423,22.675 6.189,22.923 L3.203,23.523 C1.969,23.772 0.959,25.005 0.959,26.263 L0.959,32.734 C0.959,33.993 1.969,35.227 3.203,35.475 L6.154,36.068 C7.388,36.316 8.583,37.024 8.810,37.641 C9.036,38.257 9.186,40.674 8.489,41.723 L6.827,44.222 C6.130,45.270 6.288,46.856 7.178,47.746 L11.752,52.321 C12.643,53.212 14.229,53.369 15.277,52.673 L17.736,51.037 C18.785,50.340 20.135,50.000 20.738,50.281 C21.339,50.562 23.197,52.181 23.445,53.415 L24.025,56.297 C24.273,57.531 25.506,58.540 26.766,58.540 L33.235,58.540 C34.494,58.540 35.727,57.531 35.975,56.297 L36.548,53.451 C36.796,52.216 37.518,51.016 38.152,50.783 C38.787,50.550 41.247,50.373 42.296,51.068 L44.722,52.675 C45.771,53.370 47.359,53.210 48.249,52.320 L52.821,47.748 C53.712,46.858 53.871,45.270 53.177,44.222 L51.570,41.794 C50.875,40.745 50.536,39.390 50.817,38.784 C51.098,38.177 52.712,36.307 53.946,36.057 L56.798,35.477 ZM48.280,41.070 C48.670,41.659 49.538,42.970 50.209,43.983 C50.880,44.998 50.702,46.555 49.811,47.445 L47.947,49.309 C47.056,50.200 45.499,50.379 44.485,49.708 C43.472,49.037 42.161,48.169 41.572,47.779 C40.983,47.389 39.796,47.460 38.935,47.938 C38.935,47.938 38.935,47.938 38.106,48.295 C37.919,48.375 37.729,48.450 37.539,48.525 C36.712,48.852 36.712,48.852 36.712,48.852 C35.762,49.123 34.871,49.911 34.732,50.602 C34.593,51.294 34.283,52.834 34.042,54.027 C33.802,55.220 32.576,56.198 31.316,56.198 L28.683,56.198 C27.424,56.198 26.197,55.216 25.956,54.019 C25.715,52.821 25.404,51.273 25.264,50.581 C25.124,49.889 24.232,49.094 23.281,48.815 C23.281,48.815 23.281,48.815 22.453,48.483 C22.273,48.411 22.092,48.337 21.914,48.259 C21.090,47.901 21.090,47.901 21.090,47.901 C20.232,47.423 19.050,47.351 18.464,47.740 C17.877,48.131 16.559,49.007 15.535,49.689 C14.510,50.370 12.943,50.199 12.053,49.308 L10.191,47.447 C9.301,46.557 9.134,44.985 9.820,43.952 C10.506,42.920 11.388,41.594 11.779,41.007 C12.170,40.417 12.101,39.230 11.625,38.368 C11.625,38.368 11.625,38.368 11.271,37.538 C11.205,37.380 11.145,37.220 11.081,37.060 C10.752,36.232 10.752,36.232 10.752,36.232 C10.480,35.281 9.690,34.390 9.000,34.251 C8.309,34.112 6.744,33.797 5.523,33.552 C4.302,33.306 3.302,32.075 3.302,30.815 L3.302,28.183 C3.302,26.924 4.306,25.692 5.532,25.445 C6.758,25.198 8.328,24.883 9.020,24.743 C9.713,24.604 10.509,23.711 10.789,22.759 C10.789,22.759 10.789,22.759 11.123,21.930 C11.181,21.787 11.237,21.642 11.298,21.500 C11.654,20.673 11.654,20.673 11.654,20.673 C12.131,19.812 12.201,18.627 11.811,18.039 C11.419,17.452 10.531,16.115 9.836,15.070 C9.142,14.025 9.301,12.442 10.191,11.552 L12.053,9.690 C12.943,8.799 14.527,8.639 15.572,9.334 C16.617,10.031 17.954,10.918 18.541,11.309 C19.128,11.700 20.314,11.629 21.174,11.153 C21.174,11.153 21.174,11.153 22.001,10.796 C22.137,10.739 22.274,10.685 22.411,10.629 C23.241,10.295 23.241,10.295 23.241,10.295 C24.193,10.013 25.088,9.216 25.229,8.522 C25.371,7.829 25.690,6.258 25.939,5.031 C26.188,3.805 27.422,2.801 28.681,2.801 L31.319,2.801 C32.578,2.801 33.812,3.800 34.060,5.023 C34.307,6.245 34.626,7.809 34.766,8.501 C34.906,9.193 35.801,9.984 36.752,10.258 C36.752,10.258 36.752,10.258 37.581,10.587 C37.727,10.646 37.874,10.700 38.019,10.762 C38.850,11.115 38.850,11.115 38.850,11.115 C39.715,11.591 40.904,11.663 41.494,11.271 C42.085,10.881 43.413,10.002 44.448,9.316 C45.482,8.631 47.056,8.799 47.947,9.689 L49.811,11.553 C50.702,12.443 50.873,14.011 50.193,15.038 C49.513,16.066 48.638,17.387 48.249,17.974 C47.859,18.562 47.933,19.747 48.411,20.607 C48.411,20.607 48.411,20.607 48.769,21.432 C48.840,21.597 48.909,21.764 48.975,21.931 C49.310,22.761 49.310,22.761 49.310,22.761 C49.590,23.714 50.385,24.609 51.079,24.749 C51.771,24.891 53.319,25.205 54.519,25.449 C55.717,25.692 56.698,26.922 56.698,28.181 L56.698,30.818 C56.698,32.077 55.722,33.305 54.527,33.548 C53.333,33.791 51.791,34.104 51.099,34.245 C50.408,34.385 49.619,35.278 49.346,36.231 C49.346,36.231 49.346,36.231 49.018,37.057 C48.945,37.241 48.873,37.425 48.795,37.604 C48.440,38.433 48.440,38.433 48.440,38.433 C47.962,39.294 47.890,40.481 48.280,41.070 ZM30.049,20.079 C24.819,20.080 20.581,24.318 20.580,29.547 C20.581,34.777 24.819,39.016 30.049,39.017 C35.279,39.016 39.517,34.777 39.518,29.547 C39.517,24.318 35.279,20.080 30.049,20.079 ZM30.049,36.675 C26.114,36.667 22.930,33.483 22.923,29.547 C22.930,25.613 26.114,22.429 30.049,22.423 C33.984,22.429 37.168,25.613 37.175,29.547 C37.168,33.483 33.984,36.667 30.049,36.675 Z" class="cls-1"/>
</svg>
