<svg xmlns="http://www.w3.org/2000/svg" xmlns:xlink="http://www.w3.org/1999/xlink" preserveAspectRatio="xMidYMid" width="51" height="49" viewBox="0 0 51 49">
  <defs>
    <style>
      .cls-1 {
        fill: #00e1ff;
        fill-rule: evenodd;
      }
    </style>
  </defs>
  <path d="M49.688,36.316 L38.505,25.133 L36.978,26.661 L48.161,37.844 C48.230,37.913 48.263,38.000 48.264,38.098 C48.263,38.196 48.230,38.283 48.161,38.353 L39.891,46.622 C39.821,46.693 39.734,46.726 39.636,46.726 C39.538,46.726 39.451,46.693 39.382,46.622 L34.777,42.018 L37.662,39.133 L36.039,37.511 L33.154,40.395 L28.199,35.440 L26.671,36.967 L37.855,48.150 C38.345,48.641 38.997,48.887 39.636,48.886 L39.642,48.886 C40.280,48.886 40.929,48.639 41.418,48.150 L49.688,39.879 C50.178,39.388 50.425,38.738 50.424,38.098 C50.425,37.458 50.178,36.808 49.688,36.316 ZM12.293,22.589 L13.820,21.061 L10.396,17.636 L13.281,14.751 L11.657,13.129 L8.772,16.014 L4.166,11.408 C4.098,11.338 4.064,11.252 4.063,11.154 C4.064,11.055 4.098,10.968 4.166,10.899 L12.437,2.629 C12.506,2.559 12.593,2.526 12.692,2.525 C12.790,2.526 12.877,2.559 12.946,2.629 L22.600,12.282 L24.127,10.755 L14.473,1.101 C13.983,0.611 13.332,0.364 12.692,0.366 C12.052,0.364 11.401,0.611 10.910,1.103 L2.640,9.372 C2.149,9.862 1.903,10.514 1.904,11.154 C1.903,11.793 2.149,12.445 2.640,12.935 L12.293,22.589 ZM49.149,10.900 C49.149,10.260 48.902,9.608 48.412,9.118 L40.142,0.849 C39.652,0.358 39.000,0.111 38.361,0.112 C37.721,0.111 37.069,0.358 36.579,0.849 L2.354,35.074 L2.355,35.074 C1.882,35.545 1.638,36.165 1.621,36.781 C1.484,36.885 1.367,37.007 1.288,37.135 C1.046,37.500 0.976,37.871 0.954,38.243 L0.578,46.309 L0.578,46.309 C0.576,46.355 0.576,46.394 0.576,46.426 C0.573,47.068 0.830,47.677 1.263,48.108 C1.691,48.538 2.297,48.795 2.936,48.795 L2.943,48.795 C2.989,48.795 3.036,48.794 3.087,48.790 L3.087,48.789 L3.091,48.790 L11.031,48.323 C11.406,48.298 11.776,48.219 12.138,47.973 C12.265,47.892 12.384,47.776 12.486,47.640 C13.099,47.620 13.716,47.377 14.187,46.907 L48.412,12.682 C48.902,12.190 49.149,11.540 49.149,10.900 ZM2.967,46.635 L2.967,46.635 C2.961,46.635 2.952,46.636 2.943,46.636 C2.787,46.617 2.754,46.585 2.736,46.426 L2.735,46.426 L2.736,46.417 L3.065,39.347 L6.489,42.771 L9.942,46.225 L2.967,46.635 ZM46.885,11.154 L12.660,45.380 C12.591,45.449 12.504,45.482 12.406,45.483 C12.307,45.482 12.221,45.449 12.151,45.380 L3.881,37.110 C3.811,37.040 3.779,36.954 3.777,36.855 C3.779,36.757 3.811,36.670 3.881,36.601 L38.107,2.376 C38.175,2.306 38.261,2.272 38.361,2.272 C38.459,2.272 38.545,2.306 38.615,2.376 L46.885,10.646 C46.954,10.714 46.988,10.802 46.989,10.900 C46.988,10.998 46.954,11.086 46.885,11.154 Z" class="cls-1"/>
</svg>
