<svg xmlns="http://www.w3.org/2000/svg" xmlns:xlink="http://www.w3.org/1999/xlink" preserveAspectRatio="xMidYMid" width="56" height="47" viewBox="0 0 56 47">
  <defs>
    <style>
      .cls-1 {
        fill: #00e1ff;
        fill-rule: evenodd;
      }
    </style>
  </defs>
  <path d="M38.000,47.000 L17.000,47.000 L17.000,44.999 L39.000,44.999 L39.000,47.000 L39.000,47.000 L38.000,47.000 ZM52.000,37.999 L4.000,37.999 C1.681,37.992 0.007,36.319 -0.000,33.999 L-0.000,3.999 C0.007,1.680 1.680,0.006 4.000,-0.001 L52.000,-0.001 C54.319,0.006 55.993,1.679 56.000,3.999 L56.000,33.999 C55.993,36.318 54.251,38.096 51.931,38.103 L51.933,38.103 L52.000,37.999 ZM4.066,1.877 C3.089,1.878 2.001,3.023 2.000,3.999 L2.000,33.999 C2.001,34.976 3.023,35.997 4.000,35.999 L52.000,35.999 C52.977,35.997 53.999,34.976 54.000,33.999 L54.000,3.999 C53.999,3.022 52.911,1.878 51.934,1.877 L4.067,1.877 L4.066,1.877 L4.066,1.877 Z" class="cls-1"/>
</svg>
