<svg xmlns="http://www.w3.org/2000/svg" xmlns:xlink="http://www.w3.org/1999/xlink" preserveAspectRatio="xMidYMid" width="60" height="50" viewBox="0 0 60 50">
  <defs>
    <style>
      .cls-1 {
        fill: #00e1ff;
        fill-rule: evenodd;
      }
    </style>
  </defs>
  <path d="M52.069,49.789 L7.528,49.789 C3.357,49.781 0.008,46.172 0.000,41.999 L0.000,15.999 C0.008,11.830 3.828,9.007 8.000,8.999 L12.000,8.999 L12.961,8.785 L13.256,8.483 L19.311,2.260 C20.957,0.645 23.666,0.057 26.000,-0.001 L34.000,-0.001 C36.306,0.058 38.642,0.645 40.308,2.276 L46.342,8.483 L46.637,8.785 L47.000,8.999 L52.000,8.999 C56.171,9.007 59.992,11.828 60.000,15.999 L60.000,41.999 C59.992,46.170 56.242,49.781 52.069,49.789 L52.069,49.789 ZM8.000,11.000 C4.908,11.005 1.916,13.270 1.910,16.362 L1.910,42.210 C1.916,45.305 4.908,47.994 8.000,48.000 L52.000,48.000 C55.093,47.994 57.994,45.092 58.000,41.999 L58.000,15.999 C57.994,12.906 55.092,11.005 52.000,11.000 L45.000,11.000 L41.555,7.084 L38.334,3.812 C37.470,2.822 35.461,1.999 34.000,1.999 L26.000,1.999 C25.999,1.999 26.002,1.999 26.000,1.999 C24.412,1.999 22.216,2.804 21.295,3.854 L18.112,7.083 L14.000,11.000 L8.000,11.000 L7.527,10.746 L8.000,11.000 ZM29.801,43.605 C21.996,43.603 15.648,37.254 15.648,29.453 C15.648,21.651 21.996,15.302 29.801,15.300 C37.603,15.302 43.950,21.651 43.950,29.453 C43.950,37.254 37.603,43.603 29.801,43.605 L29.801,43.605 ZM29.799,17.211 C23.061,17.223 17.569,22.715 17.559,29.451 C17.569,36.191 23.061,41.682 29.799,41.693 C36.539,41.682 42.028,36.191 42.041,29.455 C42.028,22.715 36.539,17.223 29.802,17.211 L29.801,17.211 L29.799,17.211 L29.799,17.211 Z" class="cls-1"/>
</svg>
