<svg xmlns="http://www.w3.org/2000/svg" xmlns:xlink="http://www.w3.org/1999/xlink" preserveAspectRatio="xMidYMid" width="35" height="70" viewBox="0 0 35 70">
  <defs>
    <style>
      .cls-1 {
        fill: #00e1ff;
        fill-rule: evenodd;
      }
    </style>
  </defs>
  <path d="M16.851,69.487 C12.542,69.482 8.273,68.063 4.833,65.490 C2.515,63.724 0.068,60.550 -0.000,56.999 L-0.000,25.999 C0.007,22.127 2.830,18.991 6.705,18.983 L14.991,18.983 L15.650,18.983 L15.473,18.347 C15.319,17.809 15.094,17.283 14.797,16.784 C13.673,14.905 11.683,13.405 8.881,12.324 C8.536,12.200 7.356,11.700 6.184,10.364 C5.243,9.295 3.666,6.865 3.681,2.549 L3.679,2.172 C3.677,1.735 3.677,1.571 3.726,1.139 C3.726,0.906 4.163,0.558 4.974,0.558 C5.785,0.558 6.223,0.906 6.223,1.051 C6.182,1.571 6.159,2.076 6.159,2.546 C6.166,5.112 6.729,7.068 7.881,8.525 C8.696,9.550 9.532,9.918 9.692,9.980 C13.950,11.599 15.973,13.884 16.932,15.520 C17.653,16.746 17.944,17.852 18.059,18.561 L18.126,18.983 L18.552,18.983 L26.995,18.983 C30.868,18.991 34.026,22.148 34.035,26.020 L34.035,57.329 C33.966,60.872 31.185,63.726 28.865,65.492 C25.428,68.063 21.159,69.482 16.851,69.487 L16.851,69.487 ZM2.145,36.590 L2.000,36.999 L2.000,56.999 C1.932,58.490 3.492,61.438 6.324,63.510 C9.284,65.731 13.116,67.008 16.833,67.008 L16.869,67.008 C20.584,67.008 24.416,65.731 27.383,63.507 C30.210,61.436 32.068,58.512 32.000,56.999 L32.000,36.999 L31.555,36.590 L31.000,35.999 L3.000,35.999 L2.145,36.590 L2.145,36.590 ZM18.140,21.462 L18.140,21.964 L18.140,33.612 L18.140,34.112 L19.000,33.999 L31.000,33.999 L31.555,34.112 L32.000,33.999 L32.000,25.999 C31.997,23.489 29.511,21.004 27.000,20.999 L19.000,20.999 L18.140,21.462 L18.140,21.462 ZM6.705,21.462 C4.195,21.466 2.005,23.487 2.000,25.999 L2.000,32.999 L2.145,34.112 L3.000,33.999 L15.000,33.999 L15.662,34.112 L15.662,33.612 L15.662,21.964 L15.662,21.462 L15.000,20.999 L7.000,20.999 L6.705,21.462 Z" class="cls-1"/>
</svg>
