<svg xmlns="http://www.w3.org/2000/svg" xmlns:xlink="http://www.w3.org/1999/xlink" preserveAspectRatio="xMidYMid" width="66" height="57" viewBox="0 0 66 57">
  <defs>
    <style>
      .cls-1 {
        fill: #00e1ff;
        fill-rule: evenodd;
      }
    </style>
  </defs>
  <path d="M66.000,56.999 L3.000,56.999 L1.000,56.999 L0.868,29.448 L0.868,11.238 C0.873,9.775 1.536,9.003 3.000,8.999 L19.000,8.999 L19.754,8.623 L19.954,8.623 L19.954,8.421 L19.954,7.721 L19.954,2.705 C19.961,1.243 21.537,0.003 23.000,-0.001 L45.000,-0.001 C46.461,0.003 46.993,1.536 47.000,2.999 L47.000,7.999 L47.269,8.419 L47.269,8.619 L47.469,8.619 L48.000,8.999 L64.000,8.999 C65.463,9.006 65.993,9.535 66.000,10.999 L66.000,54.999 L66.000,55.999 L66.000,56.999 L66.000,56.999 ZM3.288,32.769 L3.288,32.969 L3.000,32.999 L3.000,54.999 L3.288,54.864 L3.288,55.064 L3.489,55.064 L4.189,55.064 L33.613,55.064 L63.034,55.064 L63.734,55.064 L63.934,55.064 L63.934,54.864 L63.934,54.164 L63.934,33.669 L63.934,32.969 L63.934,32.769 L63.734,32.769 L63.000,32.999 L48.000,32.999 L44.000,32.999 L23.000,32.999 L19.000,32.999 L4.000,32.999 L3.489,32.769 L3.288,32.769 L3.288,32.769 ZM3.288,11.043 L3.288,11.243 L3.000,10.999 L3.000,28.999 L3.288,30.149 L3.288,30.349 L3.489,30.349 L3.000,30.999 L19.000,30.999 L23.000,30.999 L44.000,30.999 L48.000,30.999 L64.000,30.999 L63.734,30.349 L63.934,30.349 L63.934,30.149 L63.934,29.448 L63.934,11.943 L63.934,11.243 L63.934,11.043 L63.734,11.043 L63.034,11.043 L48.169,11.043 L43.948,11.043 L23.277,11.043 L19.054,11.043 L4.189,11.043 L3.489,11.043 L3.288,11.043 L3.288,11.043 ZM22.377,2.510 L22.377,2.710 L22.000,2.999 L22.000,7.999 L22.377,8.421 L22.377,8.623 L22.577,8.623 L23.000,8.999 L44.000,8.999 L44.648,8.623 L44.848,8.623 L44.848,8.421 L45.000,7.999 L45.000,2.999 L44.848,2.709 L44.848,2.507 L44.648,2.507 L44.000,1.999 L23.000,1.999 L22.577,2.510 L22.377,2.510 L22.377,2.510 Z" class="cls-1"/>
</svg>
