<svg xmlns="http://www.w3.org/2000/svg" xmlns:xlink="http://www.w3.org/1999/xlink" preserveAspectRatio="xMidYMid" width="59" height="62" viewBox="0 0 59 62">
  <defs>
    <style>
      .cls-1 {
        fill: #00e1ff;
        fill-rule: evenodd;
      }
    </style>
  </defs>
  <path d="M58.605,22.476 C58.275,21.561 57.406,20.903 56.374,20.901 L55.000,20.999 L55.000,16.999 L39.687,1.169 L39.455,0.937 L39.318,0.802 L39.000,0.999 L3.000,0.999 L3.000,20.999 L2.525,20.901 C1.529,20.901 0.680,21.515 0.323,22.380 C0.214,22.642 0.148,22.931 0.142,23.237 L0.078,23.751 L-0.000,23.999 L-0.000,58.999 C0.002,59.876 0.623,60.753 1.333,61.164 C1.435,61.225 1.544,61.276 1.653,61.321 C1.777,61.369 1.908,61.408 2.041,61.437 C2.203,61.470 2.838,62.002 3.000,61.999 L56.000,61.999 C57.313,61.996 58.995,60.313 59.000,58.999 L59.000,22.999 C58.998,22.706 58.694,22.718 58.605,22.476 ZM40.000,15.999 L40.000,3.999 L52.000,15.999 L40.000,15.999 ZM2.000,24.999 L3.668,26.865 L4.097,27.218 L4.671,27.693 L5.439,28.328 L5.439,28.324 L21.029,41.178 L2.000,55.999 L2.000,24.999 ZM56.816,59.103 C56.816,59.333 56.231,59.999 56.000,59.999 L3.000,59.999 C2.766,60.001 2.083,59.334 2.083,59.103 L2.083,58.977 L22.557,42.439 L26.540,45.720 L26.539,45.722 L26.904,46.021 C26.912,46.028 26.920,46.034 26.928,46.040 L27.260,46.314 L27.279,46.290 C27.958,46.718 28.748,46.918 29.523,46.918 C30.447,46.918 31.389,46.635 32.143,46.017 L36.357,42.538 L56.816,58.980 L56.816,59.103 ZM53.000,17.999 L53.000,25.999 L36.047,40.282 L35.257,40.935 L30.910,44.520 C30.564,44.806 30.049,44.980 29.523,44.980 C28.998,44.980 28.480,44.806 28.137,44.520 L23.655,40.827 L22.865,40.177 L6.507,26.691 L5.000,25.999 L5.000,2.999 L38.000,2.999 L38.000,17.999 L53.000,17.999 ZM57.000,55.999 L37.885,41.278 L54.639,27.455 L55.231,26.966 L56.121,26.230 L57.000,25.999 L57.000,55.999 ZM55.402,24.309 L55.402,22.839 L56.371,22.839 C56.562,22.839 56.738,22.981 56.797,23.160 L55.402,24.309 ZM3.497,22.839 L3.497,24.210 L2.133,23.084 C2.207,22.940 2.361,22.838 2.525,22.839 L3.497,22.839 ZM57.285,59.106 L57.285,59.106 L57.285,59.106 L57.285,59.106 Z" class="cls-1"/>
</svg>
