<svg xmlns="http://www.w3.org/2000/svg" xmlns:xlink="http://www.w3.org/1999/xlink" preserveAspectRatio="xMidYMid" width="62" height="57" viewBox="0 0 62 57">
  <defs>
    <style>
      .cls-1 {
        fill: #00e1ff;
        fill-rule: evenodd;
      }
    </style>
  </defs>
  <path d="M58.391,0.523 L58.000,0.999 L5.000,0.999 C2.969,1.002 0.922,2.175 0.920,4.207 L0.920,40.025 C0.922,42.059 2.969,43.998 5.000,43.999 L9.000,43.999 L8.944,53.922 C8.946,54.587 9.099,55.204 9.473,55.696 C9.846,56.191 10.437,56.477 11.056,56.477 L11.077,56.477 C11.629,56.477 12.167,56.283 12.670,55.959 L32.000,43.999 L58.000,43.999 C60.031,43.998 61.998,42.036 62.000,39.999 L62.000,4.000 C61.995,1.967 60.426,0.524 58.391,0.523 ZM11.704,54.451 C11.412,54.642 11.182,54.691 11.077,54.689 C10.883,54.628 10.840,54.790 10.734,53.904 L11.000,43.999 L28.000,43.999 L11.704,54.451 ZM60.000,39.999 C60.000,41.039 59.428,41.923 58.391,41.923 L4.605,41.923 C3.570,41.923 2.999,41.038 3.000,39.999 L3.000,4.000 C3.000,2.963 3.965,3.002 5.000,2.999 L58.000,2.999 C59.036,2.997 60.000,2.963 60.000,4.000 L60.000,39.999 ZM18.764,18.039 C16.599,18.039 14.848,19.794 14.848,21.959 C14.848,24.123 16.599,25.876 18.764,25.878 C20.928,25.876 22.681,24.123 22.681,21.959 C22.681,19.794 20.930,18.039 18.764,18.039 ZM18.765,24.089 C17.587,24.083 16.640,23.135 16.637,21.959 C16.640,20.780 17.588,19.832 18.766,19.830 C19.938,19.832 20.890,20.785 20.894,21.959 C20.890,23.135 19.938,24.083 18.765,24.089 ZM31.527,18.039 C29.363,18.039 27.610,19.794 27.610,21.959 C27.610,24.122 29.363,25.876 31.527,25.879 C33.690,25.876 35.446,24.124 35.446,21.959 C35.446,19.793 33.690,18.039 31.527,18.039 ZM31.527,24.088 C30.353,24.085 29.402,23.133 29.399,21.958 C29.402,20.783 30.354,19.832 31.528,19.830 C32.702,19.832 33.654,20.783 33.656,21.959 C33.654,23.133 32.702,24.085 31.527,24.088 ZM44.261,18.039 L44.261,18.041 C42.099,18.041 40.345,19.794 40.345,21.959 C40.345,24.123 42.099,25.876 44.261,25.876 C46.427,25.876 48.180,24.123 48.180,21.959 C48.180,19.794 46.427,18.041 44.261,18.039 ZM46.391,22.035 C46.346,23.176 45.410,24.087 44.261,24.089 C43.089,24.087 42.137,23.135 42.135,21.959 C42.137,20.784 43.089,19.832 44.261,19.831 C45.436,19.832 46.388,20.784 46.391,21.961 L46.391,22.035 Z" class="cls-1"/>
</svg>
